<?xml version="1.0" standalone="no"?>
<!DOCTYPE svg PUBLIC "-//W3C//DTD SVG 20010904//EN"
 "http://www.w3.org/TR/2001/REC-SVG-20010904/DTD/svg10.dtd">
<svg version="1.0" xmlns="http://www.w3.org/2000/svg"
 width="147.000000pt" height="79.000000pt" viewBox="0 0 147.000000 79.000000"
 preserveAspectRatio="xMidYMid meet">

<g transform="translate(0.000000,79.000000) scale(0.100000,-0.100000)"
fill="#000000" stroke="none">
<path d="M270 365 l0 -225 115 0 115 0 0 25 c0 25 -1 25 -90 25 l-90 0 0 200
0 200 -25 0 -25 0 0 -225z"/>
<path d="M570 365 l0 -225 25 0 c25 0 25 1 25 85 l0 85 38 0 c69 1 116 17 150
54 27 31 32 43 32 86 0 104 -49 140 -190 140 l-80 0 0 -225z m195 150 c33 -32
33 -84 2 -121 -20 -23 -34 -28 -85 -32 l-62 -4 0 91 0 91 60 0 c51 0 65 -4 85
-25z"/>
<path d="M930 365 l0 -225 25 0 c25 0 25 1 25 84 l0 83 58 6 c108 9 162 59
162 148 0 89 -58 129 -190 129 l-80 0 0 -225z m191 156 c19 -15 24 -29 24 -65
0 -65 -26 -88 -105 -94 l-60 -4 0 91 0 91 59 0 c43 0 65 -5 82 -19z"/>
</g>
</svg>
